<svg xmlns="http://www.w3.org/2000/svg" xmlns:xlink="http://www.w3.org/1999/xlink" width="500" zoomAndPan="magnify" viewBox="0 0 375 374.999991" height="500" preserveAspectRatio="xMidYMid meet" version="1.0"><rect x="-37.5" width="450" fill="#ffffff" y="-37.499999" height="449.999989" fill-opacity="1"/><rect x="-37.5" width="450" fill="#ffffff" y="-37.499999" height="449.999989" fill-opacity="1"/><path fill="#000000" d="M 187.5 0 C 84.167969 0 0 84.167969 0 187.5 C 0 290.832031 84.167969 375 187.5 375 C 290.832031 375 375 290.832031 375 187.5 C 375 84.167969 290.832031 0 187.5 0 Z M 349.167969 120.832031 L 285 120.832031 C 275.417969 75 256.25 38.75 232.917969 18.332031 C 285.417969 32.5 328.75 70.832031 349.167969 120.832031 Z M 181.25 12.917969 L 181.25 120.832031 L 102.917969 120.832031 C 116.25 59.582031 146.667969 17.5 181.25 12.917969 Z M 193.75 12.917969 C 228.332031 17.5 258.75 59.582031 272.082031 120.832031 L 193.75 120.832031 Z M 142.5 18.332031 C 118.75 38.75 99.582031 75 90 120.832031 L 25.832031 120.832031 C 46.25 70.832031 89.582031 32.5 142.5 18.332031 Z M 21.25 133.332031 L 354.167969 133.332031 C 359.582031 150.417969 362.917969 168.75 362.917969 187.5 C 362.917969 206.25 360 224.582031 354.167969 241.667969 L 21.25 241.667969 C 15.417969 224.582031 12.5 206.25 12.5 187.5 C 12.5 168.75 15.417969 150.417969 21.25 133.332031 Z M 102.917969 254.167969 L 181.25 254.167969 L 181.25 362.082031 C 146.667969 357.5 116.25 315.417969 102.917969 254.167969 Z M 193.75 362.082031 L 193.75 254.167969 L 272.082031 254.167969 C 258.75 315.417969 228.332031 357.5 193.75 362.082031 Z M 25.832031 254.167969 L 90.417969 254.167969 C 100 300 119.167969 336.25 142.917969 356.667969 C 89.582031 342.5 46.25 304.167969 25.832031 254.167969 Z M 232.5 356.667969 C 256.25 336.25 275.417969 300 285 254.167969 L 349.582031 254.167969 C 328.75 304.167969 285.417969 342.5 232.5 356.667969 Z M 232.5 356.667969 " fill-opacity="1" fill-rule="nonzero"/><path fill="#000000" d="M 164.167969 215 C 165 217.5 167.082031 219.167969 169.582031 219.167969 C 172.082031 219.167969 174.582031 217.917969 175.417969 215.417969 L 187.5 189.167969 L 199.582031 215.417969 C 200.417969 217.5 202.917969 219.167969 205.417969 219.167969 C 205.417969 219.167969 205.417969 219.167969 205.832031 219.167969 C 208.332031 219.167969 210.417969 217.5 211.25 215 L 228.75 163.75 C 230 160.417969 228.332031 157.082031 225 155.832031 C 221.667969 154.582031 218.332031 156.25 217.082031 159.582031 L 204.582031 195.832031 L 193.332031 171.667969 C 192.5 169.582031 190 167.917969 187.5 167.917969 C 185 167.917969 182.917969 169.167969 181.667969 171.667969 L 170.832031 196.25 L 158.332031 160 C 157.082031 156.667969 153.75 155 150.417969 156.25 C 147.082031 157.5 145.417969 160.832031 146.667969 164.167969 Z M 164.167969 215 " fill-opacity="1" fill-rule="nonzero"/><path fill="#000000" d="M 43.332031 164.167969 L 60.832031 215.417969 C 61.667969 217.917969 63.75 219.582031 66.25 219.582031 C 66.25 219.582031 66.25 219.582031 66.667969 219.582031 C 69.167969 219.582031 71.25 218.332031 72.5 215.832031 L 84.582031 189.582031 L 96.667969 215.832031 C 97.917969 218.332031 100 219.582031 102.5 219.582031 C 105 219.582031 107.082031 217.917969 107.917969 215.417969 L 125.417969 164.167969 C 126.667969 160.832031 125 157.5 121.667969 156.25 C 118.332031 155 115 156.667969 113.75 160 L 101.25 196.25 L 90 172.082031 C 89.167969 170 86.667969 168.332031 84.167969 168.332031 C 81.667969 168.332031 79.582031 169.582031 78.332031 172.082031 L 67.082031 196.25 L 54.582031 160 C 53.332031 156.667969 50 155 46.667969 156.25 C 43.75 157.082031 42.082031 160.832031 43.332031 164.167969 Z M 43.332031 164.167969 " fill-opacity="1" fill-rule="nonzero"/><path fill="#000000" d="M 267.082031 215 C 267.917969 217.5 270 219.167969 272.5 219.167969 C 272.5 219.167969 272.5 219.167969 272.917969 219.167969 C 275.417969 219.167969 277.5 217.917969 278.75 215.417969 L 290.832031 189.167969 L 302.917969 215.417969 C 304.167969 217.917969 306.25 219.167969 308.75 219.167969 C 311.25 219.167969 313.332031 217.5 314.167969 215 L 331.667969 163.75 C 332.917969 160.417969 331.25 157.082031 327.917969 155.832031 C 324.582031 154.582031 321.25 156.25 320 159.582031 L 307.5 195.832031 L 296.25 171.667969 C 295.417969 169.582031 292.917969 167.917969 290.417969 167.917969 C 287.917969 167.917969 285.832031 169.167969 284.582031 171.667969 L 273.332031 195.832031 L 260.832031 159.582031 C 259.582031 156.25 256.25 154.582031 252.917969 155.832031 C 249.582031 157.082031 247.917969 160.417969 249.167969 163.75 Z M 267.082031 215 " fill-opacity="1" fill-rule="nonzero"/></svg>